<mxfile
  host="Electron" 
  agent="Mozilla/5.0 (Macintosh; Intel Mac OS X 10_15_7) AppleWebKit/537.36 (KHTML, like Gecko) draw.io/25.0.2 Chrome/128.0.6613.186 Electron/32.2.5 Safari/537.36" 
  version="25.0.2"
  >
  <diagram
    name="-"
    >
    <mxGraphModel
      grid="1" 
      gridSize="10" 
      guides="1" 
      tooltips="1" 
      connect="1" 
      arrows="1" 
      fold="1" 
      page="1" 
      pageScale="1" 
      pageWidth="1" 
      pageHeight="1" 
      math="0" 
      shadow="0"
      >
      <root>
        <mxCell
          id="page"
          />
        <mxCell
          id="root" 
          parent="page"
          />
        <mxCell
          style="verticalAlign=top;aspect=fixed;align=center;spacingLeft=5;spacingRight=5;spacingBottom=5;strokeColor=none;" 
          id="shape_" 
          parent="root" 
          value=" " 
          vertex="1"
          >
          <mxGeometry
            as="geometry" 
            width="56" 
            height="62" 
            x="0" 
            y="0"
            />
          </mxCell>
        <mxCell
          style="sketch=0;html=1;verticalAlign=top;labelPosition=center;verticalLabelPosition=bottom;align=center;spacingTop=-6;fontSize=11;fontStyle=1;fontColor=#999999;shape=image;aspect=fixed;imageAspect=0;image=data:image/svg+xml,PHN2ZyB4bWxucz0iaHR0cDovL3d3dy53My5vcmcvMjAwMC9zdmciIHhtbG5zOnY9Imh0dHBzOi8vdmVjdGEuaW8vbmFubyIgd2lkdGg9IjMxNC44ODMzMTI4NTM1OTA3IiBoZWlnaHQ9IjM3Ny4zNTIwNjc2NDgzMTU0IiB2aWV3Qm94PSItMC41MDE5OTg5MDEzNjcxODc1IDAuMDEzMDAwMDAwMjY4MjIwOTAxIDgzLjMxMjk5NTkxMDY0NDUzIDk5Ljg0MTAwMzQxNzk2ODc1Ij4mI3hhOzxzdHlsZSB0eXBlPSJ0ZXh0L2NzcyI+JiN4YTsJLnN0MHtmaWxsOiNhZWNiZmE7fSYjeGE7CS5zdDF7ZmlsbDojNjY5ZGY2O30mI3hhOzwvc3R5bGU+JiN4YTsJPHBhdGggY2xhc3M9InN0MCIgZD0iTTM5LjQ5OSAzOS42NzJ2MjAuMDI5TDIyLjk3MyA3MS42N2EyMC4yNCAyMC4yNCAwIDAgMCAzMC43ODIgMi41NTQgMjAuMjQgMjAuMjQgMCAwIDAgNS45MjgtMTQuMzEyYzAtMTEuMTU3LTkuMDI4LTIwLjIwOS0yMC4xODUtMjAuMjR6bS0xLjMwNC4wMzlsLS4wNDkuMDAzLjA0OS0uMDAzem0tLjk2LjA4OWEyMC4yNCAyMC4yNCAwIDAgMC0xNy41MyAxNS42NzNjMS45MzgtOC4zMDYgOS4xNjMtMTQuNjg0IDE3LjUzLTE1LjY3M3pNMTkuNjEyIDU1Ljg5MmwtLjA3Mi4zNTcuMDcyLS4zNTd6Ii8+JiN4YTsJPHBhdGggY2xhc3M9InN0MSIgZD0iTTM5LjQ5OSA1OS43MDFMMjIuOTY2IDcxLjY3NmEyMC4xNSAyMC4xNSAwIDAgMS0zLjc3Mi0xMS43N2MwLTExLjE3OSA5LjUzOC0yMC4yNDEgMjAuMzA0LTIwLjI0MXptMzUuNTE1LTQ0LjY2NUw2Mi42MzIgMjcuNDc2Yy02LjU0OC00LjY5OS0xNC41NjQtNy40NzItMjMuMjA4LTcuNDcyLTIxLjk5MSAwLTM5LjkyNiAxNy45MzUtMzkuOTI2IDM5LjkyNnMxNy45MzUgMzkuOTI0IDM5LjkyNiAzOS45MjRTNzkuMzQ4IDgxLjkyIDc5LjM0OCA1OS45MjljMC05LjM5NC0zLjI3NC0xOC4wNDYtOC43MzctMjQuODc4bDEyLjItMTIuMjU0em0tMzUuNTkgMTQuOTY3YTI5Ljg1IDI5Ljg1IDAgMCAxIDI5LjkyNCAyOS45MjYgMjkuODUgMjkuODUgMCAwIDEtMjkuOTI0IDI5LjkyNEEyOS44NSAyOS44NSAwIDAgMSA5LjQ5OCA1OS45MjljMC0xNi41ODYgMTMuMzM5LTI5LjkyNiAyOS45MjYtMjkuOTI2ek02MC4xODUuMDEzTDE5LjU3Mi4wOGwuMDE2IDkuNSA0MC42MTMtLjA2NnoiLz4mI3hhOzwvc3ZnPg;strokeColor=none;" 
          id="cloud_profiler_" 
          parent="shape_" 
          value=" " 
          vertex="1"
          >
          <mxGeometry
            width="36" 
            height="42" 
            as="geometry" 
            x="10" 
            y="10"
            />
          </mxCell>
        </root>
      </mxGraphModel>
    </diagram>
  </mxfile>